<?xml version="1.0" standalone="no"?>
<!DOCTYPE svg PUBLIC "-//W3C//DTD SVG 20010904//EN"
 "http://www.w3.org/TR/2001/REC-SVG-20010904/DTD/svg10.dtd">
<svg version="1.0" xmlns="http://www.w3.org/2000/svg"
 width="82.000000pt" height="146.000000pt" viewBox="0 0 82.000000 146.000000"
 preserveAspectRatio="xMidYMid meet">
<metadata>
Created by potrace 1.13, written by Peter Selinger 2001-2015
</metadata>
<g transform="translate(0.000000,146.000000) scale(0.100000,-0.100000)"
fill="#000000" stroke="none">
<path d="M59 1413 c-55 -61 -60 -108 -25 -223 10 -30 20 -68 24 -85 9 -41 8
-192 -1 -235 -27 -129 -30 -174 -24 -349 5 -124 13 -218 27 -281 10 -52 19
-106 20 -120 0 -14 17 -44 39 -70 38 -44 39 -44 58 -27 22 20 73 118 73 141 0
8 4 18 10 21 19 12 11 61 -15 83 -21 19 -23 25 -14 49 5 15 26 42 45 60 29 29
34 41 34 78 0 38 4 46 27 57 17 8 30 25 35 44 9 37 27 44 120 44 64 0 70 2
109 37 65 59 72 80 49 144 -11 30 -20 63 -20 74 0 11 -14 47 -30 80 -34 67
-38 118 -12 156 9 15 51 64 92 109 99 109 121 141 118 165 -5 33 -40 29 -85
-9 -95 -82 -168 -75 -275 25 l-52 48 -31 -19 c-43 -26 -79 -25 -153 5 -81 33
-112 32 -143 -2z"/>
</g>
</svg>
