<?xml version="1.0" standalone="no"?>
<!DOCTYPE svg PUBLIC "-//W3C//DTD SVG 20010904//EN"
 "http://www.w3.org/TR/2001/REC-SVG-20010904/DTD/svg10.dtd">
<svg version="1.0" xmlns="http://www.w3.org/2000/svg"
 width="108.000000pt" height="82.000000pt" viewBox="0 0 108.000000 82.000000"
 preserveAspectRatio="xMidYMid meet">
<metadata>
Created by potrace 1.13, written by Peter Selinger 2001-2015
</metadata>
<g transform="translate(0.000000,82.000000) scale(0.100000,-0.100000)"
fill="#000000" stroke="none">
<path d="M513 781 c-10 -11 -26 -30 -35 -44 -10 -14 -32 -28 -50 -32 -18 -4
-56 -19 -85 -35 -40 -21 -50 -24 -46 -11 4 12 1 12 -10 -2 -9 -11 -13 -25 -10
-33 3 -8 -2 -23 -11 -33 -9 -10 -13 -20 -10 -23 3 -4 -37 -51 -90 -105 -56
-57 -106 -119 -121 -149 l-25 -51 19 -70 c19 -74 46 -126 80 -158 18 -15 27
-16 63 -7 117 29 170 34 275 27 60 -4 173 -9 253 -9 90 -1 153 -6 166 -14 20
-11 22 -9 26 36 3 35 16 65 47 110 48 71 70 127 76 192 4 43 21 189 32 277 7
60 -19 82 -143 121 -93 30 -111 32 -242 32 -127 0 -144 -2 -159 -19z"/>
</g>
</svg>
