<?xml version="1.0" standalone="no"?>
<!DOCTYPE svg PUBLIC "-//W3C//DTD SVG 20010904//EN"
 "http://www.w3.org/TR/2001/REC-SVG-20010904/DTD/svg10.dtd">
<svg version="1.0" xmlns="http://www.w3.org/2000/svg"
 width="124.000000pt" height="156.000000pt" viewBox="0 0 124.000000 156.000000"
 preserveAspectRatio="xMidYMid meet">
<metadata>
Created by potrace 1.13, written by Peter Selinger 2001-2015
</metadata>
<g transform="translate(0.000000,156.000000) scale(0.100000,-0.100000)"
fill="#000000" stroke="none">
<path d="M560 1527 c-47 -11 -87 -22 -90 -26 -10 -12 -50 -31 -65 -31 -9 0
-34 -15 -57 -32 -39 -32 -44 -33 -150 -38 -90 -4 -113 -8 -122 -22 -8 -13 -6
-22 12 -41 31 -33 28 -47 -18 -92 -34 -33 -40 -45 -40 -80 0 -59 18 -113 43
-130 22 -14 144 -45 200 -50 16 -2 41 -14 55 -28 15 -14 43 -34 62 -44 22 -12
43 -37 60 -69 25 -49 29 -92 21 -239 -1 -22 1 -64 5 -93 5 -48 8 -53 35 -59
27 -5 49 -25 104 -95 11 -14 32 -33 48 -43 42 -27 65 -65 71 -119 6 -57 21
-76 64 -81 42 -5 62 23 62 91 0 79 26 145 81 206 31 34 51 65 54 88 4 19 11
56 17 82 9 35 8 68 -1 130 -13 90 -8 133 19 160 15 14 16 24 8 70 -22 121 -4
158 74 158 32 0 46 6 69 31 16 17 29 39 29 49 0 17 -29 50 -46 50 -20 0 -135
96 -244 202 l-115 113 -80 1 c-48 0 -115 -7 -165 -19z"/>
</g>
</svg>
