<?xml version="1.0" standalone="no"?>
<!DOCTYPE svg PUBLIC "-//W3C//DTD SVG 20010904//EN"
 "http://www.w3.org/TR/2001/REC-SVG-20010904/DTD/svg10.dtd">
<svg version="1.0" xmlns="http://www.w3.org/2000/svg"
 width="112.000000pt" height="86.000000pt" viewBox="0 0 112.000000 86.000000"
 preserveAspectRatio="xMidYMid meet">
<metadata>
Created by potrace 1.13, written by Peter Selinger 2001-2015
</metadata>
<g transform="translate(0.000000,86.000000) scale(0.100000,-0.100000)"
fill="#000000" stroke="none">
<path d="M405 825 c-16 -9 -39 -25 -51 -36 -11 -10 -23 -19 -27 -19 -4 0 -15
-7 -24 -15 -100 -82 -163 -125 -197 -135 -23 -6 -49 -18 -60 -25 -19 -15 -35
-74 -36 -137 0 -51 50 -101 117 -117 49 -12 95 -43 105 -71 3 -8 -3 -32 -13
-52 l-19 -36 31 3 c17 3 48 20 70 40 21 19 44 35 49 35 12 0 36 -24 65 -63 11
-15 25 -27 31 -27 7 0 25 -7 40 -15 16 -8 59 -22 96 -32 38 -10 68 -21 68 -25
0 -4 13 -8 30 -8 23 0 31 5 36 25 10 40 39 30 109 -35 35 -33 68 -60 73 -60
19 0 50 32 72 75 13 25 43 67 67 93 24 25 43 49 43 53 0 4 -12 22 -27 40 -24
28 -28 42 -28 94 0 54 4 66 38 112 74 101 51 179 -57 194 -32 4 -77 17 -102
28 -24 12 -50 21 -58 21 -8 0 -18 5 -21 10 -3 6 -14 10 -24 10 -10 0 -54 19
-97 41 -73 38 -86 42 -174 46 -75 3 -101 1 -125 -12z"/>
</g>
</svg>
