<?xml version="1.0" standalone="no"?>
<!DOCTYPE svg PUBLIC "-//W3C//DTD SVG 20010904//EN"
 "http://www.w3.org/TR/2001/REC-SVG-20010904/DTD/svg10.dtd">
<svg version="1.0" xmlns="http://www.w3.org/2000/svg"
 width="72.000000pt" height="114.000000pt" viewBox="0 0 72.000000 114.000000"
 preserveAspectRatio="xMidYMid meet">
<metadata>
Created by potrace 1.13, written by Peter Selinger 2001-2015
</metadata>
<g transform="translate(0.000000,114.000000) scale(0.100000,-0.100000)"
fill="#000000" stroke="none">
<path d="M97 1080 c-20 -17 -38 -44 -42 -60 -3 -16 -13 -34 -21 -41 -18 -15
-18 -28 5 -97 11 -31 25 -93 31 -137 7 -44 25 -121 41 -172 16 -50 29 -98 29
-107 0 -8 11 -28 25 -43 107 -123 134 -147 185 -171 30 -15 60 -31 65 -37 16
-17 42 -68 48 -96 7 -28 43 -79 57 -79 5 0 24 16 43 36 20 22 54 43 83 53 41
13 50 20 52 44 3 25 1 27 -36 27 -27 0 -44 6 -58 23 -36 40 -44 75 -44 189 0
129 -22 211 -71 267 -21 25 -29 44 -29 72 0 32 6 42 40 69 38 30 40 34 40 89
0 51 -3 61 -35 93 l-34 37 -108 -2 c-115 -1 -163 11 -209 54 l-22 20 -35 -31z"/>
</g>
</svg>
