<?xml version="1.0" standalone="no"?>
<!DOCTYPE svg PUBLIC "-//W3C//DTD SVG 20010904//EN"
 "http://www.w3.org/TR/2001/REC-SVG-20010904/DTD/svg10.dtd">
<svg version="1.0" xmlns="http://www.w3.org/2000/svg"
 width="120.000000pt" height="96.000000pt" viewBox="0 0 120.000000 96.000000"
 preserveAspectRatio="xMidYMid meet">
<metadata>
Created by potrace 1.13, written by Peter Selinger 2001-2015
</metadata>
<g transform="translate(0.000000,96.000000) scale(0.100000,-0.100000)"
fill="#000000" stroke="none">
<path d="M774 911 c-35 -23 -77 -42 -104 -46 -86 -13 -88 -15 -110 -121 -7
-32 -20 -70 -29 -84 -16 -25 -18 -66 -5 -129 l7 -34 -39 7 c-22 4 -59 23 -83
42 -35 27 -49 32 -70 26 -54 -15 -105 -8 -143 21 -52 40 -72 74 -78 136 l-5
53 -47 -44 c-27 -24 -48 -50 -48 -57 0 -6 20 -33 43 -59 24 -26 71 -87 104
-137 61 -91 132 -166 191 -200 17 -11 32 -23 32 -27 0 -4 5 -8 11 -8 6 0 28
-14 49 -30 21 -17 41 -30 45 -30 3 0 25 -13 48 -28 23 -15 65 -39 92 -52 28
-14 52 -27 55 -30 22 -22 68 -36 145 -42 50 -4 116 -10 148 -14 l57 -6 0 123
c0 147 14 187 85 237 30 21 45 39 45 54 0 22 -21 89 -30 98 -3 3 -12 25 -19
50 -20 69 -29 83 -72 113 -37 25 -103 114 -104 141 -3 36 -70 116 -98 116 -8
0 -41 -18 -73 -39z"/>
</g>
</svg>
