<?xml version="1.0" standalone="no"?>
<!DOCTYPE svg PUBLIC "-//W3C//DTD SVG 20010904//EN"
 "http://www.w3.org/TR/2001/REC-SVG-20010904/DTD/svg10.dtd">
<svg version="1.0" xmlns="http://www.w3.org/2000/svg"
 width="94.000000pt" height="114.000000pt" viewBox="0 0 94.000000 114.000000"
 preserveAspectRatio="xMidYMid meet">
<metadata>
Created by potrace 1.13, written by Peter Selinger 2001-2015
</metadata>
<g transform="translate(0.000000,114.000000) scale(0.100000,-0.100000)"
fill="#000000" stroke="none">
<path d="M720 1119 c-121 -9 -232 -23 -308 -39 -64 -13 -109 -50 -143 -118
-13 -26 -27 -48 -31 -50 -5 -2 -8 -10 -8 -18 0 -19 -41 -34 -71 -27 -13 3 -36
14 -51 25 -36 25 -56 23 -64 -8 -9 -34 1 -184 12 -192 22 -16 64 -133 64 -177
0 -19 -5 -56 -12 -82 -15 -66 -69 -212 -79 -219 -5 -3 -9 -12 -9 -20 0 -10 13
-14 49 -14 27 0 53 -6 58 -13 5 -6 15 -38 22 -69 12 -54 14 -58 41 -58 18 0
57 20 108 55 44 30 84 55 89 55 4 0 20 10 35 23 14 12 50 40 78 62 29 22 70
66 92 98 45 66 57 74 89 57 l22 -12 -6 69 c-8 83 0 94 77 114 56 14 146 91
146 125 0 10 -7 53 -16 94 -11 56 -24 86 -50 120 -30 38 -35 51 -31 82 3 20
14 46 25 58 41 44 36 92 -8 88 -8 -1 -62 -5 -120 -9z"/>
</g>
</svg>
