<?xml version="1.0" standalone="no"?>
<!DOCTYPE svg PUBLIC "-//W3C//DTD SVG 20010904//EN"
 "http://www.w3.org/TR/2001/REC-SVG-20010904/DTD/svg10.dtd">
<svg version="1.0" xmlns="http://www.w3.org/2000/svg"
 width="120.000000pt" height="88.000000pt" viewBox="0 0 120.000000 88.000000"
 preserveAspectRatio="xMidYMid meet">
<metadata>
Created by potrace 1.13, written by Peter Selinger 2001-2015
</metadata>
<g transform="translate(0.000000,88.000000) scale(0.100000,-0.100000)"
fill="#000000" stroke="none">
<path d="M998 852 c-9 -4 -30 -19 -47 -34 -17 -16 -35 -28 -41 -28 -5 0 -36
-14 -68 -31 -32 -16 -74 -33 -93 -36 -19 -3 -42 -9 -51 -14 -29 -16 -164 -10
-253 11 -50 12 -121 20 -169 20 -92 0 -104 -6 -115 -63 -6 -29 -11 -32 -46
-35 -26 -2 -49 -12 -68 -30 l-27 -26 0 -150 c0 -131 4 -160 24 -219 30 -89
121 -191 151 -168 25 19 108 42 181 51 171 20 243 32 339 56 157 39 233 63
249 79 7 8 38 25 67 39 62 28 129 88 129 114 0 9 -12 30 -26 45 -22 24 -27 42
-35 115 -8 89 -13 111 -44 240 -18 71 -24 77 -57 64z"/>
</g>
</svg>
