<?xml version="1.0" standalone="no"?>
<!DOCTYPE svg PUBLIC "-//W3C//DTD SVG 20010904//EN"
 "http://www.w3.org/TR/2001/REC-SVG-20010904/DTD/svg10.dtd">
<svg version="1.0" xmlns="http://www.w3.org/2000/svg"
 width="154.000000pt" height="122.000000pt" viewBox="0 0 154.000000 122.000000"
 preserveAspectRatio="xMidYMid meet">
<metadata>
Created by potrace 1.13, written by Peter Selinger 2001-2015
</metadata>
<g transform="translate(0.000000,122.000000) scale(0.100000,-0.100000)"
fill="#000000" stroke="none">
<path d="M1127 1185 c-27 -7 -72 -24 -100 -38 -88 -43 -148 -59 -248 -67 -135
-11 -202 -44 -308 -155 -45 -47 -81 -91 -81 -98 0 -28 -71 -96 -113 -109 -54
-16 -67 -29 -79 -81 -11 -50 -45 -97 -84 -117 -52 -26 -84 -51 -84 -66 0 -8
15 -33 32 -56 30 -36 33 -47 37 -119 3 -76 4 -79 28 -79 23 0 52 24 83 70 12
17 21 20 43 15 34 -9 47 -38 47 -104 0 -83 38 -115 173 -146 67 -16 85 -16
135 -6 84 19 120 39 151 85 41 59 71 114 71 130 0 8 25 39 55 70 62 62 66 70
96 193 24 101 49 161 78 187 13 12 45 21 88 26 72 8 216 48 221 62 2 4 10 8
18 8 26 0 111 48 126 72 12 18 13 28 3 51 -14 35 -112 155 -188 230 -55 54
-61 57 -105 56 -26 0 -69 -7 -95 -14z"/>
</g>
</svg>
