<?xml version="1.0" standalone="no"?>
<!DOCTYPE svg PUBLIC "-//W3C//DTD SVG 20010904//EN"
 "http://www.w3.org/TR/2001/REC-SVG-20010904/DTD/svg10.dtd">
<svg version="1.0" xmlns="http://www.w3.org/2000/svg"
 width="86.000000pt" height="76.000000pt" viewBox="0 0 86.000000 76.000000"
 preserveAspectRatio="xMidYMid meet">
<metadata>
Created by potrace 1.13, written by Peter Selinger 2001-2015
</metadata>
<g transform="translate(0.000000,76.000000) scale(0.100000,-0.100000)"
fill="#000000" stroke="none">
<path d="M705 743 c-22 -9 -42 -20 -45 -23 -8 -12 -101 -50 -121 -50 -10 0
-33 9 -51 20 -47 28 -77 25 -155 -17 -37 -20 -79 -42 -93 -50 -14 -7 -48 -13
-76 -13 -55 0 -67 -8 -78 -53 -4 -16 -17 -45 -30 -65 -33 -52 -39 -95 -17
-124 9 -13 23 -43 30 -68 7 -25 17 -47 21 -50 4 -3 14 -29 23 -59 16 -53 11
-91 -12 -106 -20 -12 -11 -42 16 -61 23 -15 48 -18 148 -17 116 0 123 1 198
36 43 20 97 52 120 72 23 20 65 47 95 62 29 14 66 42 82 62 27 32 30 42 30
111 0 41 -5 91 -10 110 -8 28 -6 48 11 100 12 36 28 74 35 85 8 11 14 34 14
53 0 28 -5 35 -35 48 -42 17 -50 17 -100 -3z"/>
</g>
</svg>
