<?xml version="1.0" standalone="no"?>
<!DOCTYPE svg PUBLIC "-//W3C//DTD SVG 20010904//EN"
 "http://www.w3.org/TR/2001/REC-SVG-20010904/DTD/svg10.dtd">
<svg version="1.0" xmlns="http://www.w3.org/2000/svg"
 width="148.000000pt" height="78.000000pt" viewBox="0 0 148.000000 78.000000"
 preserveAspectRatio="xMidYMid meet">
<metadata>
Created by potrace 1.13, written by Peter Selinger 2001-2015
</metadata>
<g transform="translate(0.000000,78.000000) scale(0.100000,-0.100000)"
fill="#000000" stroke="none">
<path d="M845 763 c-22 -8 -73 -18 -112 -23 -84 -9 -129 -34 -159 -89 -27 -49
-70 -75 -152 -91 -39 -7 -69 -17 -66 -22 3 -4 0 -8 -5 -8 -6 0 -11 -7 -11 -15
0 -8 -16 -31 -35 -51 -19 -19 -35 -41 -35 -48 0 -16 -122 -146 -138 -146 -7 0
-12 -7 -12 -15 0 -9 -11 -20 -25 -25 -20 -8 -24 -15 -21 -40 2 -17 5 -32 7
-33 2 -1 36 -18 74 -37 86 -42 134 -74 152 -100 22 -31 98 -27 150 8 61 40
146 107 162 125 7 10 18 17 23 17 5 0 29 13 53 30 23 16 61 32 83 36 42 7 125
-8 176 -30 310 -141 446 -169 446 -93 0 10 14 42 30 72 47 84 44 92 -62 171
-51 38 -97 71 -103 73 -5 2 -34 27 -64 55 -52 50 -95 107 -117 156 -16 37 -64
90 -80 90 -8 0 -14 4 -14 8 0 13 -57 42 -82 41 -12 0 -41 -7 -63 -16z"/>
<path d="M47 195 c-4 -8 -2 -17 3 -20 6 -4 10 3 10 14 0 25 -6 27 -13 6z"/>
</g>
</svg>
