<?xml version="1.0" standalone="no"?>
<!DOCTYPE svg PUBLIC "-//W3C//DTD SVG 20010904//EN"
 "http://www.w3.org/TR/2001/REC-SVG-20010904/DTD/svg10.dtd">
<svg version="1.0" xmlns="http://www.w3.org/2000/svg"
 width="66.000000pt" height="48.000000pt" viewBox="0 0 66.000000 48.000000"
 preserveAspectRatio="xMidYMid meet">
<metadata>
Created by potrace 1.13, written by Peter Selinger 2001-2015
</metadata>
<g transform="translate(0.000000,48.000000) scale(0.100000,-0.100000)"
fill="#000000" stroke="none">
<path d="M230 438 c-11 -12 -20 -28 -20 -35 0 -7 -9 -13 -20 -13 -11 0 -20 -7
-20 -16 0 -8 -34 -49 -75 -91 -72 -72 -75 -77 -75 -122 1 -48 15 -72 60 -104
19 -13 46 -17 116 -17 50 0 116 -5 148 -11 83 -17 153 0 206 51 40 39 70 101
70 146 0 13 5 24 10 24 11 0 14 98 4 125 -12 31 -59 45 -156 45 -71 1 -102 5
-133 20 -53 26 -90 25 -115 -2z"/>
</g>
</svg>
