<?xml version="1.0" standalone="no"?>
<!DOCTYPE svg PUBLIC "-//W3C//DTD SVG 20010904//EN"
 "http://www.w3.org/TR/2001/REC-SVG-20010904/DTD/svg10.dtd">
<svg version="1.0" xmlns="http://www.w3.org/2000/svg"
 width="84.000000pt" height="140.000000pt" viewBox="0 0 84.000000 140.000000"
 preserveAspectRatio="xMidYMid meet">
<metadata>
Created by potrace 1.13, written by Peter Selinger 2001-2015
</metadata>
<g transform="translate(0.000000,140.000000) scale(0.100000,-0.100000)"
fill="#000000" stroke="none">
<path d="M328 1259 c-73 -64 -88 -97 -88 -199 0 -60 -5 -93 -20 -125 -23 -51
-99 -162 -129 -189 -12 -11 -21 -23 -21 -28 0 -5 -10 -22 -21 -37 -17 -23 -22
-48 -26 -118 -9 -145 26 -229 113 -273 28 -15 61 -44 84 -75 20 -27 44 -56 53
-64 10 -7 17 -20 17 -27 0 -8 4 -14 8 -14 5 0 15 -16 22 -36 12 -31 17 -34 39
-29 14 4 28 10 31 13 3 4 27 18 54 32 50 25 96 75 96 104 0 47 63 106 112 106
19 0 39 23 73 87 15 29 35 60 44 71 23 26 41 59 41 76 0 15 -55 66 -71 66 -18
0 -68 65 -69 88 0 13 -5 33 -12 45 -6 12 -11 53 -10 91 1 78 -14 111 -56 121
-52 12 -94 66 -108 140 -8 45 3 74 32 85 34 13 30 39 -9 55 -18 7 -41 23 -52
35 -11 12 -31 28 -45 35 -24 13 -29 10 -82 -36z"/>
</g>
</svg>
