<?xml version="1.0" standalone="no"?>
<!DOCTYPE svg PUBLIC "-//W3C//DTD SVG 20010904//EN"
 "http://www.w3.org/TR/2001/REC-SVG-20010904/DTD/svg10.dtd">
<svg version="1.0" xmlns="http://www.w3.org/2000/svg"
 width="138.000000pt" height="124.000000pt" viewBox="0 0 138.000000 124.000000"
 preserveAspectRatio="xMidYMid meet">
<metadata>
Created by potrace 1.13, written by Peter Selinger 2001-2015
</metadata>
<g transform="translate(0.000000,124.000000) scale(0.100000,-0.100000)"
fill="#000000" stroke="none">
<path d="M440 1203 c-14 -9 -31 -23 -38 -30 -7 -7 -31 -18 -52 -24 -41 -12
-120 -82 -120 -106 0 -7 -6 -13 -14 -13 -20 0 -29 -17 -36 -64 -5 -39 -6 -40
-64 -53 -33 -7 -68 -21 -78 -30 -23 -21 -24 -88 -1 -133 16 -34 99 -120 115
-120 5 0 21 -12 36 -27 26 -26 27 -31 32 -172 l5 -145 40 -21 c22 -11 51 -30
65 -43 39 -35 93 -46 165 -31 88 17 124 8 155 -41 13 -22 28 -40 32 -40 4 0 8
-6 8 -13 0 -16 42 -57 58 -57 16 0 52 32 52 46 0 24 79 84 119 90 35 6 41 11
47 37 10 45 23 65 85 127 47 47 94 105 134 168 21 33 73 80 96 87 27 8 59 34
59 46 0 5 -25 33 -55 63 -30 29 -55 58 -55 64 0 5 -7 15 -15 22 -9 7 -24 32
-35 54 -25 55 -123 156 -152 156 -12 0 -51 7 -87 16 -56 14 -74 25 -120 70
l-55 54 -68 0 c-60 0 -72 3 -94 25 -28 28 -86 55 -118 55 -12 0 -33 -8 -46
-17z"/>
</g>
</svg>
