<?xml version="1.0" standalone="no"?>
<!DOCTYPE svg PUBLIC "-//W3C//DTD SVG 20010904//EN"
 "http://www.w3.org/TR/2001/REC-SVG-20010904/DTD/svg10.dtd">
<svg version="1.0" xmlns="http://www.w3.org/2000/svg"
 width="96.000000pt" height="128.000000pt" viewBox="0 0 96.000000 128.000000"
 preserveAspectRatio="xMidYMid meet">
<metadata>
Created by potrace 1.13, written by Peter Selinger 2001-2015
</metadata>
<g transform="translate(0.000000,128.000000) scale(0.100000,-0.100000)"
fill="#000000" stroke="none">
<path d="M760 1218 c-25 -58 -61 -97 -112 -121 -20 -9 -40 -17 -45 -17 -4 -1
-26 -9 -48 -20 -22 -11 -47 -19 -55 -20 -20 0 -141 -44 -166 -60 -44 -29 -65
-68 -74 -142 -12 -104 -22 -120 -98 -148 -83 -32 -122 -74 -122 -134 0 -47 21
-75 76 -98 37 -16 98 -68 114 -98 10 -19 14 -130 7 -220 -2 -22 4 -26 48 -38
28 -7 74 -17 102 -22 33 -6 63 -18 80 -34 25 -23 36 -26 101 -26 l74 0 -7 58
c-10 92 -17 263 -11 286 7 30 75 56 144 56 32 0 63 5 69 11 7 7 9 41 6 92 -4
63 0 100 15 157 21 78 59 192 73 222 5 10 9 46 9 81 0 58 -3 66 -33 98 -40 41
-68 84 -83 124 -14 39 -50 46 -64 13z"/>
</g>
</svg>
