<?xml version="1.0" standalone="no"?>
<!DOCTYPE svg PUBLIC "-//W3C//DTD SVG 20010904//EN"
 "http://www.w3.org/TR/2001/REC-SVG-20010904/DTD/svg10.dtd">
<svg version="1.0" xmlns="http://www.w3.org/2000/svg"
 width="114.000000pt" height="102.000000pt" viewBox="0 0 114.000000 102.000000"
 preserveAspectRatio="xMidYMid meet">
<metadata>
Created by potrace 1.13, written by Peter Selinger 2001-2015
</metadata>
<g transform="translate(0.000000,102.000000) scale(0.100000,-0.100000)"
fill="#000000" stroke="none">
<path d="M633 979 c-48 -16 -74 -32 -113 -71 -27 -28 -50 -55 -50 -60 0 -15
-74 -79 -99 -85 -18 -4 -28 0 -41 17 -26 34 -43 21 -86 -67 -21 -43 -43 -81
-49 -85 -5 -4 -26 -8 -46 -8 -24 0 -42 -7 -56 -22 -34 -39 -73 -132 -73 -176
l0 -40 188 -4 c180 -3 188 -4 222 -28 19 -13 41 -30 49 -38 24 -23 19 -92 -13
-155 -27 -57 -28 -59 -10 -78 23 -26 95 -59 127 -59 16 0 46 22 93 67 44 43
94 80 144 105 125 63 163 86 203 125 33 32 38 41 32 68 -19 89 -17 130 10 210
43 126 70 344 45 360 -12 8 -60 -31 -60 -49 -1 -6 -20 -30 -43 -54 -103 -105
-200 -33 -158 116 l10 32 -82 -1 c-53 0 -104 -7 -144 -20z"/>
</g>
</svg>
