<?xml version="1.0" standalone="no"?>
<!DOCTYPE svg PUBLIC "-//W3C//DTD SVG 20010904//EN"
 "http://www.w3.org/TR/2001/REC-SVG-20010904/DTD/svg10.dtd">
<svg version="1.0" xmlns="http://www.w3.org/2000/svg"
 width="72.000000pt" height="86.000000pt" viewBox="0 0 72.000000 86.000000"
 preserveAspectRatio="xMidYMid meet">
<metadata>
Created by potrace 1.13, written by Peter Selinger 2001-2015
</metadata>
<g transform="translate(0.000000,86.000000) scale(0.100000,-0.100000)"
fill="#000000" stroke="none">
<path d="M457 842 c-10 -2 -20 -16 -24 -33 -6 -32 -66 -99 -88 -99 -8 0 -15
-6 -15 -13 0 -19 -61 -73 -102 -90 -37 -16 -192 -162 -202 -190 -4 -12 3 -27
18 -42 52 -52 85 -111 97 -174 7 -37 21 -74 35 -90 22 -26 25 -26 186 -32 155
-5 165 -6 205 -32 46 -29 103 -36 121 -14 6 7 12 45 13 85 2 81 -12 108 -59
114 -37 4 -42 40 -40 278 1 122 -3 205 -10 221 -11 27 -75 95 -102 108 -8 4
-23 6 -33 3z"/>
</g>
</svg>
