<?xml version="1.0" standalone="no"?>
<!DOCTYPE svg PUBLIC "-//W3C//DTD SVG 20010904//EN"
 "http://www.w3.org/TR/2001/REC-SVG-20010904/DTD/svg10.dtd">
<svg version="1.0" xmlns="http://www.w3.org/2000/svg"
 width="140.000000pt" height="112.000000pt" viewBox="0 0 140.000000 112.000000"
 preserveAspectRatio="xMidYMid meet">
<metadata>
Created by potrace 1.13, written by Peter Selinger 2001-2015
</metadata>
<g transform="translate(0.000000,112.000000) scale(0.100000,-0.100000)"
fill="#000000" stroke="none">
<path d="M755 1069 c-22 -17 -62 -42 -89 -55 -56 -27 -234 -74 -281 -74 -34 0
-78 -28 -95 -61 -12 -21 -50 -154 -70 -242 -11 -48 -20 -64 -49 -85 -50 -37
-61 -49 -61 -62 0 -7 -8 -24 -19 -38 -34 -49 -61 -102 -61 -122 0 -26 36 -34
116 -27 79 8 157 -6 220 -38 27 -14 66 -25 88 -25 41 0 129 -38 164 -71 12
-10 25 -19 30 -19 4 0 21 -13 37 -30 47 -49 83 -61 188 -59 70 1 103 -2 127
-15 39 -19 62 -20 78 -4 22 22 13 45 -20 58 -18 7 -44 17 -58 23 -42 19 -183
114 -224 151 -34 31 -101 56 -151 56 -7 0 -28 14 -45 31 -34 34 -35 66 -3 102
23 24 50 21 118 -13 33 -16 71 -30 83 -30 33 0 83 25 183 91 87 58 216 111
302 124 l46 7 0 47 c0 25 7 64 16 86 9 22 18 48 22 58 3 9 9 17 14 17 5 0 9
13 9 29 0 30 -2 31 -92 62 -18 6 -46 17 -63 24 -16 7 -40 16 -52 19 -12 4 -53
22 -92 41 -40 19 -77 35 -84 35 -7 0 -38 9 -70 20 -79 28 -114 25 -162 -11z"/>
</g>
</svg>
