<?xml version="1.0" standalone="no"?>
<!DOCTYPE svg PUBLIC "-//W3C//DTD SVG 20010904//EN"
 "http://www.w3.org/TR/2001/REC-SVG-20010904/DTD/svg10.dtd">
<svg version="1.0" xmlns="http://www.w3.org/2000/svg"
 width="54.000000pt" height="144.000000pt" viewBox="0 0 54.000000 144.000000"
 preserveAspectRatio="xMidYMid meet">
<metadata>
Created by potrace 1.13, written by Peter Selinger 2001-2015
</metadata>
<g transform="translate(0.000000,144.000000) scale(0.100000,-0.100000)"
fill="#000000" stroke="none">
<path d="M253 1403 c-13 -12 -23 -29 -23 -38 0 -32 -30 -71 -97 -128 -121
-103 -123 -105 -123 -157 0 -25 4 -50 9 -56 4 -5 13 -27 19 -49 14 -52 38
-117 64 -174 21 -46 25 -58 52 -186 14 -67 40 -128 80 -187 10 -15 16 -35 14
-45 -2 -9 7 -27 19 -40 13 -13 23 -34 23 -51 0 -16 4 -42 9 -58 5 -16 14 -55
20 -86 14 -67 47 -105 100 -114 20 -3 49 -10 64 -14 34 -11 46 9 25 43 -8 12
-20 49 -27 82 -7 33 -17 71 -21 85 -26 78 -32 433 -11 605 6 50 10 134 10 189
0 95 -4 129 -29 226 -6 25 -9 66 -6 91 8 62 -12 80 -91 82 -48 2 -62 -2 -80
-20z"/>
</g>
</svg>
