<?xml version="1.0" standalone="no"?>
<!DOCTYPE svg PUBLIC "-//W3C//DTD SVG 20010904//EN"
 "http://www.w3.org/TR/2001/REC-SVG-20010904/DTD/svg10.dtd">
<svg version="1.0" xmlns="http://www.w3.org/2000/svg"
 width="158.000000pt" height="192.000000pt" viewBox="0 0 158.000000 192.000000"
 preserveAspectRatio="xMidYMid meet">
<metadata>
Created by potrace 1.13, written by Peter Selinger 2001-2015
</metadata>
<g transform="translate(0.000000,192.000000) scale(0.100000,-0.100000)"
fill="#000000" stroke="none">
<path d="M368 1863 c-28 -29 -36 -44 -32 -61 8 -30 -20 -72 -49 -72 -12 0 -33
-9 -47 -20 -14 -11 -30 -20 -36 -20 -6 0 -21 -11 -34 -24 l-23 -25 21 -78 c11
-43 25 -118 31 -168 15 -115 26 -148 68 -208 19 -26 38 -60 44 -75 6 -15 16
-40 24 -57 33 -73 85 -262 85 -311 0 -79 -10 -96 -127 -211 -104 -103 -113
-116 -113 -150 -1 -60 -20 -89 -88 -132 -52 -34 -62 -45 -62 -69 0 -38 52
-117 91 -137 36 -19 50 -17 166 27 114 42 167 38 227 -21 46 -45 87 -53 142
-27 16 8 47 22 69 31 78 33 86 39 92 67 3 15 11 32 18 38 7 5 61 13 121 16
129 8 140 13 240 116 105 107 146 138 188 138 35 0 66 21 66 45 0 27 42 111
81 161 21 28 39 55 39 61 0 5 -22 33 -49 62 -51 55 -91 125 -91 161 0 28 -38
26 -69 -4 -15 -14 -39 -28 -54 -31 -24 -6 -34 -1 -81 46 -44 44 -58 67 -77
127 -13 40 -28 71 -34 69 -5 -2 -15 -42 -21 -89 -5 -48 -16 -93 -23 -102 -20
-24 -62 -19 -96 12 -57 52 -71 85 -106 270 -22 116 -38 158 -90 227 -62 84
-124 224 -113 257 7 22 50 34 68 19 7 -6 18 -42 25 -80 12 -69 30 -99 51 -86
14 9 12 133 -4 177 -15 43 -81 134 -105 148 -16 8 -103 12 -211 9 -19 -1 -46
2 -60 6 -20 5 -32 -1 -62 -32z"/>
</g>
</svg>
