<?xml version="1.0" standalone="no"?>
<!DOCTYPE svg PUBLIC "-//W3C//DTD SVG 20010904//EN"
 "http://www.w3.org/TR/2001/REC-SVG-20010904/DTD/svg10.dtd">
<svg version="1.0" xmlns="http://www.w3.org/2000/svg"
 width="170.000000pt" height="88.000000pt" viewBox="0 0 170.000000 88.000000"
 preserveAspectRatio="xMidYMid meet">
<metadata>
Created by potrace 1.13, written by Peter Selinger 2001-2015
</metadata>
<g transform="translate(0.000000,88.000000) scale(0.100000,-0.100000)"
fill="#000000" stroke="none">
<path d="M780 850 c0 -6 10 -24 21 -40 25 -33 20 -73 -10 -90 -11 -5 -66 -22
-123 -36 -105 -27 -148 -28 -303 -8 -62 8 -124 -8 -165 -43 -20 -17 -47 -27
-78 -31 -52 -5 -75 -20 -97 -64 -16 -34 -23 -31 99 -52 114 -20 212 -53 319
-107 31 -16 60 -19 162 -19 96 0 134 -4 165 -17 22 -10 40 -21 40 -25 0 -5 5
-8 11 -8 6 0 34 -20 63 -45 100 -89 160 -135 173 -135 7 0 13 -4 13 -10 0 -5
6 -10 14 -10 7 0 24 -8 37 -18 13 -10 40 -24 59 -31 19 -7 50 -20 68 -28 32
-14 36 -13 75 13 65 43 272 258 306 319 17 30 31 56 31 58 0 11 -39 47 -52 47
-8 0 -18 4 -24 10 -6 6 -28 4 -61 -6 -28 -8 -76 -14 -105 -12 l-53 3 -5 56
c-3 31 -11 63 -18 72 -7 8 -42 26 -79 38 -36 13 -68 29 -70 36 -3 7 -17 13
-32 13 -36 0 -78 45 -86 93 -5 23 -18 46 -37 62 -28 23 -37 25 -144 25 -72 0
-114 -4 -114 -10z"/>
</g>
</svg>
