<?xml version="1.0" standalone="no"?>
<!DOCTYPE svg PUBLIC "-//W3C//DTD SVG 20010904//EN"
 "http://www.w3.org/TR/2001/REC-SVG-20010904/DTD/svg10.dtd">
<svg version="1.0" xmlns="http://www.w3.org/2000/svg"
 width="84.000000pt" height="82.000000pt" viewBox="0 0 84.000000 82.000000"
 preserveAspectRatio="xMidYMid meet">
<metadata>
Created by potrace 1.13, written by Peter Selinger 2001-2015
</metadata>
<g transform="translate(0.000000,82.000000) scale(0.100000,-0.100000)"
fill="#000000" stroke="none">
<path d="M348 775 c-15 -14 -30 -25 -34 -25 -3 0 -19 -11 -35 -25 -51 -42
-135 -57 -164 -29 -8 9 -22 13 -30 10 -17 -6 -29 -64 -22 -108 35 -229 33
-258 -18 -258 -14 0 -25 -5 -25 -11 0 -5 19 -48 41 -95 37 -77 41 -90 35 -135
-4 -27 -9 -56 -12 -64 -9 -23 101 -20 152 4 21 10 60 23 87 30 42 10 53 9 92
-9 63 -29 116 -26 156 8 53 43 168 165 174 183 3 9 15 20 26 25 21 10 49 71
49 110 0 19 -37 64 -53 64 -13 0 -77 63 -77 76 0 7 -5 14 -11 16 -6 2 -13 41
-16 86 -6 78 -8 84 -40 112 -18 17 -46 31 -61 32 -15 1 -35 2 -44 3 -9 0 -20
3 -23 7 -4 4 -22 4 -40 1 -19 -3 -35 -1 -39 6 -12 18 -40 13 -68 -14z"/>
</g>
</svg>
