<?xml version="1.0" standalone="no"?>
<!DOCTYPE svg PUBLIC "-//W3C//DTD SVG 20010904//EN"
 "http://www.w3.org/TR/2001/REC-SVG-20010904/DTD/svg10.dtd">
<svg version="1.0" xmlns="http://www.w3.org/2000/svg"
 width="134.000000pt" height="74.000000pt" viewBox="0 0 134.000000 74.000000"
 preserveAspectRatio="xMidYMid meet">
<metadata>
Created by potrace 1.13, written by Peter Selinger 2001-2015
</metadata>
<g transform="translate(0.000000,74.000000) scale(0.100000,-0.100000)"
fill="#000000" stroke="none">
<path d="M267 680 c-23 -22 -62 -55 -86 -73 -23 -18 -50 -45 -60 -62 -9 -16
-19 -31 -23 -33 -5 -2 -8 -9 -8 -15 0 -7 -13 -27 -29 -46 -48 -55 -46 -68 8
-74 25 -3 49 -1 52 5 3 5 32 9 65 8 32 -1 76 2 97 6 28 5 37 3 38 -7 1 -8 2
-21 3 -29 2 -8 3 -25 4 -37 3 -39 71 -102 149 -139 40 -19 73 -38 73 -43 0 -4
24 -18 53 -30 28 -12 61 -27 72 -32 97 -43 199 -59 383 -59 243 0 262 13 262
176 0 114 -3 119 -89 146 -23 7 -41 16 -41 20 0 5 -9 8 -20 8 -11 0 -20 3 -20
8 0 4 -8 12 -19 17 -45 24 -160 108 -205 149 -85 79 -114 88 -254 80 -103 -6
-125 -4 -146 9 -54 36 -96 56 -138 67 -24 6 -51 14 -61 16 -11 4 -32 -9 -60
-36z"/>
</g>
</svg>
