<?xml version="1.0" standalone="no"?>
<!DOCTYPE svg PUBLIC "-//W3C//DTD SVG 20010904//EN"
 "http://www.w3.org/TR/2001/REC-SVG-20010904/DTD/svg10.dtd">
<svg version="1.0" xmlns="http://www.w3.org/2000/svg"
 width="86.000000pt" height="108.000000pt" viewBox="0 0 86.000000 108.000000"
 preserveAspectRatio="xMidYMid meet">
<metadata>
Created by potrace 1.13, written by Peter Selinger 2001-2015
</metadata>
<g transform="translate(0.000000,108.000000) scale(0.100000,-0.100000)"
fill="#000000" stroke="none">
<path d="M570 1000 c-40 -39 -44 -40 -109 -40 l-67 0 -62 -61 c-34 -34 -62
-66 -62 -71 0 -17 -25 -35 -58 -43 l-32 -7 0 -71 c0 -69 1 -73 32 -99 28 -22
31 -30 22 -45 -6 -10 -17 -18 -23 -18 -10 0 -122 -105 -175 -164 -18 -20 -18
-22 -2 -40 11 -12 20 -48 26 -106 8 -79 12 -91 41 -121 17 -18 43 -35 56 -39
14 -3 33 -13 41 -22 15 -15 17 -13 28 14 7 16 20 35 28 42 9 8 16 18 16 23 0
13 19 29 57 51 22 12 53 17 110 17 87 0 97 4 169 76 36 37 50 44 82 44 65 0
112 68 112 162 0 20 4 39 8 42 15 9 35 142 29 186 -4 31 -16 53 -43 81 -21 22
-42 39 -46 39 -16 0 -76 61 -87 88 -6 15 -15 47 -19 71 -4 25 -12 46 -18 48
-7 2 -30 -14 -54 -37z"/>
</g>
</svg>
