<?xml version="1.0" standalone="no"?>
<!DOCTYPE svg PUBLIC "-//W3C//DTD SVG 20010904//EN"
 "http://www.w3.org/TR/2001/REC-SVG-20010904/DTD/svg10.dtd">
<svg version="1.0" xmlns="http://www.w3.org/2000/svg"
 width="118.000000pt" height="126.000000pt" viewBox="0 0 118.000000 126.000000"
 preserveAspectRatio="xMidYMid meet">
<metadata>
Created by potrace 1.13, written by Peter Selinger 2001-2015
</metadata>
<g transform="translate(0.000000,126.000000) scale(0.100000,-0.100000)"
fill="#000000" stroke="none">
<path d="M981 1202 c-20 -21 -50 -45 -66 -54 -112 -58 -235 -104 -345 -128
-30 -7 -66 -17 -80 -22 -14 -6 -81 -14 -150 -18 -142 -10 -274 -39 -304 -69
-17 -18 -18 -24 -7 -47 7 -15 25 -44 40 -63 15 -20 36 -52 47 -71 10 -19 36
-51 56 -72 21 -20 38 -43 38 -52 0 -28 24 -71 58 -103 19 -18 38 -33 42 -33 4
0 29 -33 56 -72 52 -79 176 -209 237 -250 20 -14 54 -40 75 -59 83 -74 114
-76 195 -13 15 12 27 26 27 31 0 5 -22 32 -50 61 -113 117 -120 198 -22 261
70 44 80 58 91 129 10 62 10 63 110 158 62 59 108 113 122 142 l23 46 -27 80
c-15 45 -28 107 -31 138 -3 43 -11 63 -32 87 -36 41 -59 39 -103 -7z"/>
</g>
</svg>
