<?xml version="1.0" standalone="no"?>
<!DOCTYPE svg PUBLIC "-//W3C//DTD SVG 20010904//EN"
 "http://www.w3.org/TR/2001/REC-SVG-20010904/DTD/svg10.dtd">
<svg version="1.0" xmlns="http://www.w3.org/2000/svg"
 width="134.000000pt" height="144.000000pt" viewBox="0 0 134.000000 144.000000"
 preserveAspectRatio="xMidYMid meet">
<metadata>
Created by potrace 1.13, written by Peter Selinger 2001-2015
</metadata>
<g transform="translate(0.000000,144.000000) scale(0.100000,-0.100000)"
fill="#000000" stroke="none">
<path d="M1225 1418 c-11 -6 -65 -54 -120 -108 -119 -117 -153 -133 -285 -130
-115 3 -110 5 -110 -34 0 -45 -27 -63 -143 -100 -117 -38 -170 -34 -227 17
-22 21 -43 37 -48 38 -102 10 -191 -25 -234 -92 -31 -47 -28 -63 16 -84 48
-24 61 -36 91 -90 24 -44 27 -61 28 -135 0 -87 -9 -116 -65 -210 -11 -19 -26
-51 -33 -71 -7 -19 -22 -56 -33 -80 -30 -65 -52 -131 -46 -140 2 -4 30 -8 62
-8 48 0 60 -3 77 -24 24 -30 48 -42 98 -51 21 -4 58 -16 82 -26 54 -23 64 -12
34 37 -18 28 -22 50 -21 101 1 70 34 216 62 272 32 63 105 117 190 143 111 33
154 39 255 32 110 -8 179 -32 190 -64 11 -36 48 -26 75 19 67 110 81 128 120
145 57 26 74 56 67 120 -3 29 -13 67 -22 85 -24 47 -24 129 1 166 36 51 48 91
36 122 -5 15 -15 52 -22 82 -18 80 -32 92 -75 68z"/>
</g>
</svg>
