<?xml version="1.0" standalone="no"?>
<!DOCTYPE svg PUBLIC "-//W3C//DTD SVG 20010904//EN"
 "http://www.w3.org/TR/2001/REC-SVG-20010904/DTD/svg10.dtd">
<svg version="1.0" xmlns="http://www.w3.org/2000/svg"
 width="70.000000pt" height="98.000000pt" viewBox="0 0 70.000000 98.000000"
 preserveAspectRatio="xMidYMid meet">
<metadata>
Created by potrace 1.13, written by Peter Selinger 2001-2015
</metadata>
<g transform="translate(0.000000,98.000000) scale(0.100000,-0.100000)"
fill="#000000" stroke="none">
<path d="M276 856 c-5 -20 -14 -26 -50 -31 -41 -7 -44 -9 -49 -44 -3 -27 -19
-51 -61 -95 -38 -40 -56 -67 -56 -84 0 -27 -14 -113 -32 -194 -13 -64 -3 -118
31 -154 16 -17 34 -53 42 -83 15 -59 44 -93 112 -130 l45 -24 27 21 c35 27 55
28 89 1 l26 -20 0 49 c0 61 18 81 56 63 22 -10 26 -9 31 7 3 12 20 24 44 31
21 7 48 22 60 34 23 24 89 152 89 173 0 6 -27 39 -61 72 -55 54 -60 63 -54 90
3 17 13 36 21 43 22 18 17 48 -11 61 -30 14 -37 35 -31 105 3 46 0 55 -23 76
-44 40 -93 57 -169 57 -66 0 -70 -1 -76 -24z"/>
</g>
</svg>
