<?xml version="1.0" standalone="no"?>
<!DOCTYPE svg PUBLIC "-//W3C//DTD SVG 20010904//EN"
 "http://www.w3.org/TR/2001/REC-SVG-20010904/DTD/svg10.dtd">
<svg version="1.0" xmlns="http://www.w3.org/2000/svg"
 width="78.000000pt" height="72.000000pt" viewBox="0 0 78.000000 72.000000"
 preserveAspectRatio="xMidYMid meet">
<metadata>
Created by potrace 1.13, written by Peter Selinger 2001-2015
</metadata>
<g transform="translate(0.000000,72.000000) scale(0.100000,-0.100000)"
fill="#000000" stroke="none">
<path d="M25 680 c-16 -18 -16 -22 4 -89 11 -38 21 -79 21 -92 0 -34 31 -201
42 -225 14 -29 60 -54 101 -54 20 0 62 -14 96 -31 64 -33 64 -33 188 -13 86
14 120 -4 206 -110 39 -47 72 -59 84 -30 15 39 -63 212 -132 291 -45 52 -75
117 -75 161 0 17 -12 41 -30 60 -16 18 -30 36 -30 40 0 4 -12 13 -27 19 -16 6
-41 19 -58 29 -57 33 -67 35 -188 49 -160 19 -180 19 -202 -5z"/>
</g>
</svg>
