<?xml version="1.0" standalone="no"?>
<!DOCTYPE svg PUBLIC "-//W3C//DTD SVG 20010904//EN"
 "http://www.w3.org/TR/2001/REC-SVG-20010904/DTD/svg10.dtd">
<svg version="1.0" xmlns="http://www.w3.org/2000/svg"
 width="96.000000pt" height="78.000000pt" viewBox="0 0 96.000000 78.000000"
 preserveAspectRatio="xMidYMid meet">
<metadata>
Created by potrace 1.13, written by Peter Selinger 2001-2015
</metadata>
<g transform="translate(0.000000,78.000000) scale(0.100000,-0.100000)"
fill="#000000" stroke="none">
<path d="M395 689 c-23 -10 -72 -44 -110 -75 -39 -30 -85 -62 -103 -71 -58
-28 -79 -63 -80 -135 -1 -61 -16 -125 -47 -193 -25 -58 -26 -71 -6 -96 18 -22
22 -23 62 -12 42 11 44 10 76 -22 18 -18 33 -40 33 -49 0 -23 18 -20 56 9 18
14 37 25 42 25 6 0 12 4 14 8 2 5 77 27 167 50 90 23 170 47 177 53 8 6 19 29
26 51 6 22 23 48 36 59 33 26 127 52 158 45 25 -7 34 11 10 20 -8 3 -12 13 -9
24 9 35 -28 68 -102 90 -223 67 -270 90 -294 144 -10 23 -25 47 -34 55 -10 7
-17 20 -17 27 0 18 -6 17 -55 -7z"/>
</g>
</svg>
