<?xml version="1.0" standalone="no"?>
<!DOCTYPE svg PUBLIC "-//W3C//DTD SVG 20010904//EN"
 "http://www.w3.org/TR/2001/REC-SVG-20010904/DTD/svg10.dtd">
<svg version="1.0" xmlns="http://www.w3.org/2000/svg"
 width="142.000000pt" height="114.000000pt" viewBox="0 0 142.000000 114.000000"
 preserveAspectRatio="xMidYMid meet">
<metadata>
Created by potrace 1.13, written by Peter Selinger 2001-2015
</metadata>
<g transform="translate(0.000000,114.000000) scale(0.100000,-0.100000)"
fill="#000000" stroke="none">
<path d="M252 1093 c-24 -14 -59 -27 -78 -28 -39 -3 -84 -32 -84 -55 0 -9 -5
-21 -11 -27 -9 -9 -16 -52 -38 -258 -5 -44 -12 -88 -16 -98 -6 -14 12 -39 76
-106 102 -107 109 -116 109 -135 0 -23 88 -83 140 -96 25 -6 55 -18 68 -26 13
-9 45 -19 70 -24 81 -15 142 -33 142 -42 0 -4 9 -8 19 -8 11 0 21 -3 23 -7 2
-5 40 -20 85 -35 l82 -27 67 21 c46 14 81 34 111 61 l43 39 78 -3 c68 -4 84
-8 115 -32 20 -15 37 -35 37 -43 0 -7 5 -14 10 -14 6 0 10 -15 10 -34 0 -55
11 -96 27 -96 8 0 28 14 45 30 34 34 34 32 0 162 -14 52 -19 103 -18 153 2 47
-2 82 -9 92 -13 17 -65 28 -210 41 -73 7 -101 15 -150 42 -33 18 -62 35 -65
39 -3 3 -16 12 -30 19 -47 23 -103 59 -125 80 -12 11 -33 24 -46 27 -14 3 -39
19 -56 36 -18 16 -36 29 -41 29 -14 0 -142 132 -142 147 0 7 -3 13 -8 13 -4 0
-15 18 -25 40 -21 48 -119 150 -144 150 -10 -1 -38 -13 -61 -27z"/>
</g>
</svg>
