<?xml version="1.0" standalone="no"?>
<!DOCTYPE svg PUBLIC "-//W3C//DTD SVG 20010904//EN"
 "http://www.w3.org/TR/2001/REC-SVG-20010904/DTD/svg10.dtd">
<svg version="1.0" xmlns="http://www.w3.org/2000/svg"
 width="92.000000pt" height="90.000000pt" viewBox="0 0 92.000000 90.000000"
 preserveAspectRatio="xMidYMid meet">
<metadata>
Created by potrace 1.13, written by Peter Selinger 2001-2015
</metadata>
<g transform="translate(0.000000,90.000000) scale(0.100000,-0.100000)"
fill="#000000" stroke="none">
<path d="M120 865 c-36 -8 -75 -17 -87 -20 -22 -5 -23 -10 -23 -115 0 -87 4
-116 18 -142 22 -39 39 -177 48 -395 5 -131 9 -154 25 -169 18 -16 21 -15 71
24 82 63 125 112 146 167 18 47 22 50 63 58 24 4 73 5 109 2 53 -5 73 -2 107
14 50 25 107 27 159 5 66 -28 89 -26 123 8 l31 32 0 168 c0 154 -2 172 -23
220 -25 56 -95 128 -125 128 -10 0 -24 6 -30 13 -20 19 -526 21 -612 2z"/>
</g>
</svg>
