<?xml version="1.0" standalone="no"?>
<!DOCTYPE svg PUBLIC "-//W3C//DTD SVG 20010904//EN"
 "http://www.w3.org/TR/2001/REC-SVG-20010904/DTD/svg10.dtd">
<svg version="1.0" xmlns="http://www.w3.org/2000/svg"
 width="162.000000pt" height="198.000000pt" viewBox="0 0 162.000000 198.000000"
 preserveAspectRatio="xMidYMid meet">
<metadata>
Created by potrace 1.13, written by Peter Selinger 2001-2015
</metadata>
<g transform="translate(0.000000,198.000000) scale(0.100000,-0.100000)"
fill="#000000" stroke="none">
<path d="M405 1924 c-27 -14 -67 -33 -89 -40 -21 -8 -56 -31 -77 -51 -21 -20
-52 -44 -70 -52 -23 -11 -36 -28 -46 -56 -7 -22 -22 -58 -32 -80 -31 -65 -32
-74 -10 -126 30 -69 23 -134 -21 -196 -32 -44 -32 -46 -16 -73 9 -16 16 -48
16 -73 0 -27 6 -52 15 -61 8 -8 15 -19 15 -23 0 -5 8 -18 18 -29 10 -10 26
-45 36 -76 10 -32 22 -60 27 -64 16 -9 11 -120 -6 -134 -8 -7 -15 -17 -15 -22
0 -5 -7 -16 -15 -24 -21 -21 -19 -87 3 -106 9 -9 41 -18 70 -20 44 -4 60 -11
90 -41 34 -33 42 -35 111 -39 73 -4 75 -5 110 -45 41 -48 70 -61 159 -74 88
-13 131 -43 166 -115 9 -17 22 -37 31 -44 8 -7 15 -18 15 -26 0 -7 44 -59 98
-115 79 -81 103 -100 123 -97 14 2 29 14 36 29 25 52 65 69 228 96 l50 8 3 67
c3 64 1 71 -36 125 -21 32 -50 76 -65 98 -27 41 -53 75 -98 129 -96 116 -112
171 -115 401 -1 133 -5 178 -17 205 -33 71 -57 87 -136 89 -65 2 -138 40 -147
77 -6 25 0 111 12 172 5 24 2 38 -12 53 -25 28 -127 83 -191 104 -31 9 -53 23
-53 31 0 7 14 42 31 77 27 55 31 70 25 110 -6 40 -11 47 -30 47 -13 0 -50 2
-82 5 -51 5 -66 2 -109 -21z"/>
</g>
</svg>
