<?xml version="1.0" standalone="no"?>
<!DOCTYPE svg PUBLIC "-//W3C//DTD SVG 20010904//EN"
 "http://www.w3.org/TR/2001/REC-SVG-20010904/DTD/svg10.dtd">
<svg version="1.0" xmlns="http://www.w3.org/2000/svg"
 width="134.000000pt" height="124.000000pt" viewBox="0 0 134.000000 124.000000"
 preserveAspectRatio="xMidYMid meet">
<metadata>
Created by potrace 1.13, written by Peter Selinger 2001-2015
</metadata>
<g transform="translate(0.000000,124.000000) scale(0.100000,-0.100000)"
fill="#000000" stroke="none">
<path d="M554 1180 c-6 -6 -35 -13 -65 -16 -45 -5 -61 -13 -99 -48 -59 -54
-87 -69 -107 -58 -42 24 -83 -25 -83 -100 0 -92 -45 -190 -127 -281 -58 -63
-66 -94 -36 -137 23 -33 145 -150 157 -150 15 0 110 -104 131 -143 11 -20 30
-48 42 -62 13 -13 23 -28 23 -33 0 -12 106 -115 127 -124 47 -18 58 -10 77 56
10 36 28 73 40 83 33 29 84 63 94 63 12 0 102 91 102 103 0 20 109 115 140
122 35 8 100 60 100 80 0 8 6 20 13 27 6 7 21 29 31 48 30 53 66 88 113 112
23 12 52 32 64 44 38 40 10 56 -126 72 -33 4 -66 11 -72 15 -17 11 -16 48 1
72 30 44 28 60 -14 101 -29 30 -57 45 -103 58 -34 10 -73 21 -87 26 -14 4 -59
13 -100 20 -41 7 -89 16 -107 22 -18 5 -46 10 -64 10 -17 1 -33 7 -36 15 -6
16 -15 17 -29 3z"/>
</g>
</svg>
