<?xml version="1.0" standalone="no"?>
<!DOCTYPE svg PUBLIC "-//W3C//DTD SVG 20010904//EN"
 "http://www.w3.org/TR/2001/REC-SVG-20010904/DTD/svg10.dtd">
<svg version="1.0" xmlns="http://www.w3.org/2000/svg"
 width="112.000000pt" height="108.000000pt" viewBox="0 0 112.000000 108.000000"
 preserveAspectRatio="xMidYMid meet">
<metadata>
Created by potrace 1.13, written by Peter Selinger 2001-2015
</metadata>
<g transform="translate(0.000000,108.000000) scale(0.100000,-0.100000)"
fill="#000000" stroke="none">
<path d="M380 1050 c-19 -10 -42 -21 -51 -24 -15 -4 -15 -10 -3 -57 8 -28 12
-61 9 -73 -18 -88 -41 -169 -60 -216 -33 -79 -49 -170 -41 -237 15 -122 11
-133 -53 -133 -19 0 -60 -7 -92 -16 -80 -23 -93 -59 -68 -186 l11 -56 102 -5
c55 -4 126 -11 156 -17 109 -21 242 -24 316 -5 80 20 96 27 224 105 52 32 135
77 183 101 121 60 124 79 28 177 -38 39 -45 42 -95 42 -47 0 -56 3 -61 21 -10
30 3 124 26 196 12 37 19 81 17 110 l-3 48 -81 5 c-89 5 -107 15 -145 76 -27
44 -50 49 -99 24 -67 -34 -81 -27 -110 60 -22 65 -28 75 -50 77 -14 2 -41 -6
-60 -17z"/>
</g>
</svg>
