<?xml version="1.0" standalone="no"?>
<!DOCTYPE svg PUBLIC "-//W3C//DTD SVG 20010904//EN"
 "http://www.w3.org/TR/2001/REC-SVG-20010904/DTD/svg10.dtd">
<svg version="1.0" xmlns="http://www.w3.org/2000/svg"
 width="88.000000pt" height="86.000000pt" viewBox="0 0 88.000000 86.000000"
 preserveAspectRatio="xMidYMid meet">
<metadata>
Created by potrace 1.13, written by Peter Selinger 2001-2015
</metadata>
<g transform="translate(0.000000,86.000000) scale(0.100000,-0.100000)"
fill="#000000" stroke="none">
<path d="M335 827 c-35 -20 -58 -45 -118 -131 -9 -14 -35 -31 -57 -37 -21 -7
-50 -24 -63 -38 -26 -29 -87 -177 -87 -213 0 -30 79 -108 140 -139 38 -18 67
-23 180 -28 152 -7 140 -2 254 -108 76 -70 113 -90 223 -123 55 -17 73 -9 73
32 0 25 -10 44 -43 80 -64 68 -75 100 -87 238 -6 68 -18 136 -25 151 -19 35
-57 65 -103 80 -49 15 -80 44 -87 83 -32 158 -99 210 -200 153z"/>
</g>
</svg>
