<?xml version="1.0" standalone="no"?>
<!DOCTYPE svg PUBLIC "-//W3C//DTD SVG 20010904//EN"
 "http://www.w3.org/TR/2001/REC-SVG-20010904/DTD/svg10.dtd">
<svg version="1.0" xmlns="http://www.w3.org/2000/svg"
 width="108.000000pt" height="78.000000pt" viewBox="0 0 108.000000 78.000000"
 preserveAspectRatio="xMidYMid meet">
<metadata>
Created by potrace 1.13, written by Peter Selinger 2001-2015
</metadata>
<g transform="translate(0.000000,78.000000) scale(0.100000,-0.100000)"
fill="#000000" stroke="none">
<path d="M382 754 c-35 -14 -47 -26 -146 -139 -33 -37 -83 -80 -111 -96 -28
-16 -62 -40 -74 -53 -21 -22 -39 -81 -41 -129 0 -20 39 -38 85 -39 17 -1 32
-4 35 -9 3 -4 17 -9 30 -11 14 -2 30 -6 35 -10 6 -3 29 -11 53 -17 23 -7 42
-16 42 -21 0 -6 9 -10 21 -10 11 0 28 -4 37 -9 9 -4 34 -11 55 -14 33 -5 42
-2 63 20 13 14 24 22 25 17 6 -79 27 -113 93 -155 34 -22 70 -46 81 -54 36
-28 56 -20 107 43 9 11 14 23 11 26 -3 3 6 10 21 16 15 5 35 17 43 26 9 9 33
26 53 39 51 32 96 92 110 145 6 25 17 59 25 75 7 17 16 44 19 60 6 29 4 32
-39 53 -25 12 -61 22 -79 22 -28 0 -44 11 -99 66 -60 61 -66 71 -72 120 -6 47
-9 54 -28 54 -12 0 -35 -7 -51 -15 -31 -16 -146 -21 -162 -6 -18 16 -108 20
-142 5z"/>
</g>
</svg>
