<?xml version="1.0" standalone="no"?>
<!DOCTYPE svg PUBLIC "-//W3C//DTD SVG 20010904//EN"
 "http://www.w3.org/TR/2001/REC-SVG-20010904/DTD/svg10.dtd">
<svg version="1.0" xmlns="http://www.w3.org/2000/svg"
 width="146.000000pt" height="148.000000pt" viewBox="0 0 146.000000 148.000000"
 preserveAspectRatio="xMidYMid meet">
<metadata>
Created by potrace 1.13, written by Peter Selinger 2001-2015
</metadata>
<g transform="translate(0.000000,148.000000) scale(0.100000,-0.100000)"
fill="#000000" stroke="none">
<path d="M185 1440 c-14 -16 -20 -45 -26 -128 -15 -223 -35 -310 -90 -392 -37
-56 -59 -102 -59 -125 0 -14 17 -51 38 -83 21 -31 44 -74 50 -94 16 -45 30
-173 33 -298 2 -52 8 -106 15 -120 22 -45 159 -160 190 -160 8 0 35 15 61 33
47 32 79 49 116 61 18 6 87 -20 87 -33 0 -3 15 -12 33 -20 17 -8 50 -23 72
-34 28 -14 68 -21 136 -24 l96 -5 36 31 c20 18 61 69 91 114 51 77 114 147
162 178 75 50 181 170 210 237 17 42 9 58 -51 108 -25 20 -52 51 -60 68 -28
58 -109 135 -171 162 -32 14 -81 48 -111 77 -59 57 -119 97 -144 97 -29 0
-202 60 -269 92 -48 24 -90 57 -161 129 -52 53 -114 108 -137 123 -53 33 -120
36 -147 6z"/>
</g>
</svg>
