<?xml version="1.0" standalone="no"?>
<!DOCTYPE svg PUBLIC "-//W3C//DTD SVG 20010904//EN"
 "http://www.w3.org/TR/2001/REC-SVG-20010904/DTD/svg10.dtd">
<svg version="1.0" xmlns="http://www.w3.org/2000/svg"
 width="142.000000pt" height="182.000000pt" viewBox="0 0 142.000000 182.000000"
 preserveAspectRatio="xMidYMid meet">
<metadata>
Created by potrace 1.13, written by Peter Selinger 2001-2015
</metadata>
<g transform="translate(0.000000,182.000000) scale(0.100000,-0.100000)"
fill="#000000" stroke="none">
<path d="M512 1797 c-49 -15 -116 -80 -145 -139 -16 -33 -28 -80 -32 -123 -11
-122 -32 -154 -150 -235 -110 -74 -181 -164 -155 -195 5 -6 29 -18 52 -25 58
-18 102 -52 122 -93 20 -43 20 -129 0 -182 -8 -22 -18 -81 -21 -131 -5 -75 -2
-97 13 -130 28 -60 88 -145 134 -189 76 -72 150 -200 150 -258 0 -55 60 -88
91 -51 20 24 48 149 49 214 0 73 24 157 51 186 14 15 39 26 68 30 25 3 60 17
78 30 17 13 35 24 38 24 4 0 48 41 98 90 51 50 96 90 102 90 14 0 175 171 175
186 0 6 -7 25 -15 40 -23 44 -19 70 14 93 16 12 34 21 41 21 15 0 49 41 50 60
0 8 -7 29 -16 45 -8 17 -16 54 -17 84 l-1 54 64 58 c63 57 63 59 45 79 -10 11
-24 20 -32 20 -7 0 -13 5 -13 10 0 6 -7 10 -15 10 -8 0 -29 8 -47 18 -18 10
-64 29 -102 43 -80 28 -99 48 -133 146 -32 93 -46 103 -147 103 -44 0 -117 7
-161 15 -92 17 -186 18 -233 2z"/>
</g>
</svg>
