<?xml version="1.0" standalone="no"?>
<!DOCTYPE svg PUBLIC "-//W3C//DTD SVG 20010904//EN"
 "http://www.w3.org/TR/2001/REC-SVG-20010904/DTD/svg10.dtd">
<svg version="1.0" xmlns="http://www.w3.org/2000/svg"
 width="116.000000pt" height="88.000000pt" viewBox="0 0 116.000000 88.000000"
 preserveAspectRatio="xMidYMid meet">
<metadata>
Created by potrace 1.13, written by Peter Selinger 2001-2015
</metadata>
<g transform="translate(0.000000,88.000000) scale(0.100000,-0.100000)"
fill="#000000" stroke="none">
<path d="M410 851 c-14 -5 -50 -20 -81 -34 -31 -15 -61 -27 -67 -27 -6 0 -12
-4 -14 -8 -4 -10 -82 -62 -123 -82 -16 -8 -32 -17 -35 -20 -3 -3 -18 -11 -33
-19 -44 -23 -30 -44 40 -61 37 -9 81 -29 110 -50 26 -19 53 -37 58 -39 6 -2
58 -50 117 -107 59 -57 114 -104 123 -104 28 0 99 -37 140 -74 22 -20 44 -36
48 -36 4 0 41 -22 82 -50 41 -27 79 -50 85 -50 5 0 10 -4 10 -10 0 -5 6 -10
13 -10 8 0 22 -9 32 -20 28 -31 47 -24 82 30 18 27 52 62 75 77 24 15 46 32
49 37 4 5 -8 29 -27 53 -19 25 -34 50 -34 56 0 6 -29 41 -64 77 -69 70 -94
109 -116 180 -19 63 -101 142 -166 161 -35 10 -66 31 -115 77 -63 59 -69 62
-115 61 -27 0 -60 -4 -74 -8z"/>
</g>
</svg>
