<?xml version="1.0" standalone="no"?>
<!DOCTYPE svg PUBLIC "-//W3C//DTD SVG 20010904//EN"
 "http://www.w3.org/TR/2001/REC-SVG-20010904/DTD/svg10.dtd">
<svg version="1.0" xmlns="http://www.w3.org/2000/svg"
 width="96.000000pt" height="126.000000pt" viewBox="0 0 96.000000 126.000000"
 preserveAspectRatio="xMidYMid meet">
<metadata>
Created by potrace 1.13, written by Peter Selinger 2001-2015
</metadata>
<g transform="translate(0.000000,126.000000) scale(0.100000,-0.100000)"
fill="#000000" stroke="none">
<path d="M339 1239 c-14 -14 -19 -33 -19 -71 -1 -63 -16 -85 -86 -124 -27 -15
-51 -28 -53 -30 -2 -2 -7 -22 -11 -45 -6 -29 -2 -72 11 -137 21 -103 24 -177
10 -216 -6 -15 -27 -32 -54 -44 -47 -21 -71 -41 -100 -82 -24 -34 -21 -67 8
-94 37 -34 55 -97 55 -190 0 -62 5 -86 18 -102 24 -30 138 -94 167 -94 13 0
45 13 72 30 45 28 118 49 243 70 114 20 306 84 341 114 24 20 24 43 0 111 -19
54 -62 121 -125 196 -17 20 -47 55 -66 78 -53 64 -100 158 -100 202 0 20 7 73
15 116 8 43 15 117 15 164 0 96 -9 113 -80 149 -56 28 -232 28 -261 -1z"/>
</g>
</svg>
